<svg id="Layer_1" data-name="Layer 1" xmlns="http://www.w3.org/2000/svg" viewBox="0 0 347.33 76.35"><defs><style>.cls-1{fill:#f1f2f2;}.cls-2{fill:none;}.cls-3{fill:#a7a9ac;}.cls-4{fill:#d1d3d4;}.cls-5{fill:#fff3ae;}.cls-6{fill:#f29e75;}.cls-7{fill:#b24c26;}.cls-8{fill:#f26522;}.cls-9{fill:#58595b;}</style></defs><title>LOGO_WEB_2021</title><polygon class="cls-1" points="32.94 16.31 51.79 27.19 65.89 19.02 32.96 0 0 19.02 14.09 27.19 32.94 16.31"/><polygon class="cls-2" points="51.79 27.19 65.89 19.02 51.79 27.19 51.79 27.19"/><polygon class="cls-3" points="32.94 55.94 32.94 55.94 47.03 47.81 47.03 29.96 32.94 38.13 32.94 55.94"/><polygon class="cls-2" points="32.94 38.13 32.94 55.94 32.94 55.94 32.94 38.13 47.03 29.96 47.03 29.96 32.94 38.13"/><polygon class="cls-4" points="18.86 29.96 18.86 47.81 32.94 55.94 32.94 38.13 18.86 29.96"/><polygon class="cls-4" points="14.09 27.19 0 19.02 0 57.24 14.09 65.41 14.09 27.2 14.09 27.19"/><polygon class="cls-4" points="18.86 68.17 32.94 76.34 32.94 61.45 18.86 53.32 18.86 68.17"/><polygon class="cls-1" points="47.03 29.96 47.03 29.95 32.94 21.82 18.86 29.95 18.86 29.96 32.94 38.13 47.03 29.96"/><polygon class="cls-5" points="47.03 29.96 47.03 29.96 51.79 27.19 51.79 27.19 47.03 29.96"/><polygon class="cls-5" points="32.94 55.94 32.94 61.45 32.94 61.45 32.94 55.94 32.94 55.94"/><polygon class="cls-6" points="18.85 47.81 23.69 50.6 18.85 53.32 18.85 62.67 14.08 65.41 14.08 27.2 14.09 27.19 32.94 16.31 32.94 21.82 18.85 29.95 18.85 47.81"/><polygon class="cls-7" points="51.8 50.53 51.8 50.56 32.94 61.45 18.85 53.32 23.69 50.6 32.94 55.94 46.99 47.83 51.8 50.53"/><polygon class="cls-8" points="51.8 27.2 51.8 50.53 46.99 47.83 47.02 47.81 47.02 29.95 32.94 21.82 32.94 16.31 51.79 27.19 51.8 27.2"/><polygon class="cls-3" points="56.28 62.79 56.28 57.37 61.04 60.05 65.89 57.24 65.89 19.02 51.79 27.19 51.8 27.2 51.8 50.56 32.94 61.45 32.94 61.45 32.94 76.34 56.28 62.79"/><polygon class="cls-8" points="56.28 47.94 56.28 57.37 61.05 60.05 61.05 45.2 56.28 47.94"/><polygon class="cls-7" points="56.28 41.6 56.28 46.17 61.05 43.44 57.02 41.18 56.28 41.6"/><polygon class="cls-8" points="61.05 38.86 57.02 41.18 61.05 43.44 61.05 43.44 61.05 38.86"/><path class="cls-8" d="M84.51,50.48V24.27l1.86-.87H95.7q6.12,0,6.12,6.11v5.25q0,6.1-6.12,6.11H88v8l-3.32,1.57ZM88,26.54V37.73H95.7c1.75,0,2.62-1,2.62-3V29.51c0-2-.87-3-2.62-3Z"/><path class="cls-8" d="M110.55,49.79q-5.23,0-5.24-5.25V42.15c0-3.5,1.75-5.24,5.24-5.24h3.68a3.23,3.23,0,0,1,1.74.52V35.8c0-1.39-.58-2.09-1.74-2.09H108v-.18l1.4-3h4.86q5.24,0,5.24,5.24V48.91l-3.32,1.57H116V49.26a2.71,2.71,0,0,1-1.74.53Zm0-3.15h3.68q1.74,0,1.74-2.1V42.15q0-2.1-1.74-2.1h-3.68q-1.74,0-1.74,2.1v2.39Q108.81,46.64,110.55,46.64Z"/><path class="cls-8" d="M124.71,50.48V35.8q0-5.23,5.24-5.24h4.37v.18l-1.39,3h-3c-1.16,0-1.74.7-1.74,2.09V48.91l-3.32,1.57Z"/><path class="cls-8" d="M139.6,50.48V33.74h-4.49v-.17l1.41-3h3.08V24.27l3.32-1.57h.18v7.86h4.49v.18l-1.42,3H143.1V48.91l-3.32,1.57Z"/><path class="cls-8" d="M150.65,50.48V35.8c0-3.49,1.74-5.24,5.24-5.24h4q5.24,0,5.24,5.24V48.91l-3.32,1.57h-.17V35.8c0-1.39-.59-2.09-1.75-2.09h-4c-1.17,0-1.75.7-1.75,2.09V48.91l-3.32,1.57Z"/><path class="cls-8" d="M175.64,49.79q-5.25,0-5.25-5.25V35.8q0-5.23,5.25-5.24h4q5.24,0,5.24,5.24v.93l-11,8.47a1.55,1.55,0,0,0,1.7,1.44h4q1.74,0,1.74-2.1v-.92L184.73,42h.17v2.5q0,5.25-5.24,5.25Zm-1.75-8.24,7.5-5.79c-.07-1.37-.65-2-1.73-2h-4c-1.17,0-1.75.7-1.75,2.09Z"/><path class="cls-8" d="M190.14,50.48V35.8q0-5.23,5.25-5.24h4.37v.18l-1.4,3h-3c-1.17,0-1.75.7-1.75,2.09V48.91l-3.32,1.57Z"/><path class="cls-8" d="M207.44,49.79q-5.24,0-5.24-5.25v-.63l3.32-1.57h.18v2.2q0,2.1,1.74,2.1h4c1.17,0,1.75-.7,1.75-2.1V43.16c0-1.4-.58-2.09-1.75-2.09h-3.28c-3.5,0-5.24-1.76-5.24-5.27s1.74-5.24,5.24-5.24h2q5.25,0,5.25,4.23l-3.32,1.57H212V35.8c0-1.39-.58-2.09-1.75-2.09h-2c-1.17,0-1.75.7-1.75,2.09s.58,2.12,1.75,2.12h3.28q5.25,0,5.25,5.24v1.38q0,5.25-5.25,5.25Z"/><path class="cls-9" d="M236.28,50.48V24.27l3.32-1.57h.18V48.91l-3.32,1.57Z"/><path class="cls-9" d="M245.89,50.48V35.8q0-5.23,5.25-5.24h4q5.23,0,5.24,5.24V48.91l-3.32,1.57h-.18V35.8c0-1.39-.58-2.09-1.74-2.09h-4c-1.17,0-1.75.7-1.75,2.09V48.91l-3.32,1.57Z"/><path class="cls-9" d="M268,50.48V33.74h-4.49v-.17l1.41-3H268V24.27l3.32-1.57h.17v7.86h4.5v.18l-1.42,3h-3.08V48.91l-3.32,1.57Z"/><path class="cls-9" d="M284.24,49.79q-5.25,0-5.25-5.25V35.8q0-5.23,5.25-5.24h4q5.24,0,5.24,5.24v.93l-11,8.47a1.55,1.55,0,0,0,1.7,1.44h4q1.74,0,1.74-2.1v-.92L293.32,42h.18v2.5q0,5.25-5.24,5.25Zm-1.75-8.24,7.5-5.79c-.07-1.37-.65-2-1.73-2h-4c-1.17,0-1.75.7-1.75,2.09Z"/><path class="cls-9" d="M298.74,50.48V35.8q0-5.23,5.25-5.24h4.36v.18l-1.39,3h-3c-1.17,0-1.75.7-1.75,2.09V48.91l-3.32,1.57Z"/><path class="cls-9" d="M312.46,26.7a2.17,2.17,0,0,1,0-3,2.07,2.07,0,0,1,3,0,2.17,2.17,0,0,1,0,3,2.07,2.07,0,0,1-3,0Zm-.26,23.78v-19l3.32-1.58h.17v19l-3.32,1.57Z"/><path class="cls-9" d="M321.81,50.48V35.8q0-5.23,5.25-5.24h4a4.3,4.3,0,0,1,3.5,1.3,4.42,4.42,0,0,1,3.5-1.3h4q5.24,0,5.24,5.24V48.91L344,50.48h-.18V35.8c0-1.39-.58-2.09-1.74-2.09h-4c-1.17,0-1.75.7-1.75,2.09V48.91L333,50.48h-.18V35.8c0-1.39-.58-2.09-1.75-2.09h-4c-1.17,0-1.75.7-1.75,2.09V48.91L322,50.48Z"/></svg>