<svg id="Layer_1" data-name="Layer 1" xmlns="http://www.w3.org/2000/svg" viewBox="0 0 500 500"><defs><style>.cls-1{fill:#f1f2f2;}.cls-2{fill:none;}.cls-3{fill:#a7a9ac;}.cls-4{fill:#d1d3d4;}.cls-5{fill:#fff3ae;}.cls-6{fill:#f29e75;}.cls-7{fill:#b24c26;}.cls-8{fill:#f26522;}.cls-9{fill:#58595b;}</style></defs><title>LOGO_WEB_2021</title><polygon class="cls-1" points="251.43 86.71 351.66 144.58 426.58 101.12 251.54 0 76.28 101.12 151.2 144.58 251.43 86.71"/><polygon class="cls-2" points="351.66 144.58 426.58 101.12 351.66 144.58 351.66 144.58"/><polygon class="cls-3" points="251.43 297.43 251.43 297.43 326.32 254.19 326.32 159.28 251.43 202.72 251.43 297.43"/><polygon class="cls-2" points="251.43 202.72 251.43 297.43 251.43 297.43 251.43 202.72 326.32 159.28 326.32 159.28 251.43 202.72"/><polygon class="cls-4" points="176.54 159.28 176.54 254.19 251.43 297.43 251.43 202.72 176.54 159.28"/><polygon class="cls-4" points="151.2 144.58 76.28 101.12 76.28 304.31 151.17 347.75 151.17 144.59 151.2 144.58"/><polygon class="cls-4" points="176.54 362.47 251.43 405.91 251.43 326.72 176.54 283.49 176.54 362.47"/><polygon class="cls-1" points="326.32 159.28 326.32 159.24 251.43 116 176.54 159.24 176.54 159.28 251.43 202.72 326.32 159.28"/><polygon class="cls-5" points="326.32 159.28 326.32 159.28 351.66 144.58 351.66 144.58 326.32 159.28"/><polygon class="cls-5" points="251.43 297.43 251.43 326.72 251.43 326.72 251.43 297.43 251.43 297.43"/><polygon class="cls-6" points="176.54 254.19 202.25 269.04 176.54 283.49 176.54 333.21 151.17 347.75 151.17 144.59 151.2 144.58 251.43 86.71 251.43 116 176.54 159.24 176.54 254.19"/><polygon class="cls-7" points="351.69 268.64 351.69 268.84 251.43 326.72 176.54 283.49 202.25 269.04 251.43 297.43 326.15 254.29 351.69 268.64"/><polygon class="cls-8" points="351.69 144.6 351.69 268.64 326.15 254.29 326.32 254.19 326.32 159.24 251.43 116 251.43 86.71 351.66 144.58 351.69 144.6"/><polygon class="cls-3" points="375.5 333.85 375.51 305.03 400.83 319.25 426.58 304.31 426.58 101.12 351.66 144.58 351.69 144.6 351.69 268.84 251.43 326.72 251.43 326.72 251.43 405.91 375.5 333.85"/><polygon class="cls-8" points="375.52 254.87 375.51 305.03 400.86 319.27 400.86 240.29 375.52 254.87"/><polygon class="cls-7" points="375.52 221.19 375.5 245.49 400.84 230.95 379.44 218.93 375.52 221.19"/><polygon class="cls-8" points="400.86 206.61 379.44 218.93 400.84 230.95 400.86 230.94 400.86 206.61"/><path class="cls-8" d="M39.7,500V457.62l3-1.41H57.78q9.9,0,9.89,9.89v8.47q0,9.9-9.89,9.89H45.35v13L40,500Zm5.65-38.71v18.08H57.78c2.83,0,4.24-1.59,4.24-4.8V466.1q0-4.82-4.24-4.81Z"/><path class="cls-8" d="M81.8,498.87q-8.47,0-8.48-8.48v-3.87q0-8.47,8.48-8.47h5.93a5.24,5.24,0,0,1,2.83.85v-2.63c0-2.26-1-3.39-2.83-3.39H77.62v-.29l2.26-4.8h7.85q8.47,0,8.48,8.48v21.19L90.84,500h-.28v-2a4.42,4.42,0,0,1-2.83.85Zm0-5.09h5.93c1.88,0,2.83-1.13,2.83-3.39v-3.87c0-2.26-1-3.39-2.83-3.39H81.8q-2.83,0-2.83,3.39v3.87Q79,493.78,81.8,493.78Z"/><path class="cls-8" d="M104.68,500V476.27q0-8.47,8.48-8.48h7.06v.28L118,472.88h-4.8c-1.88,0-2.83,1.13-2.83,3.39v21.19L105,500Z"/><path class="cls-8" d="M128.76,500V472.93h-7.27v-.28l2.29-4.86h5V457.62l5.36-2.54h.29v12.71h7.26v.28l-2.29,4.86h-5v24.53L129,500Z"/><path class="cls-8" d="M146.61,500V476.27q0-8.47,8.48-8.48h6.5q8.47,0,8.47,8.48v21.19L164.69,500h-.28V476.27q0-3.39-2.82-3.39h-6.5q-2.84,0-2.83,3.39v21.19L146.89,500Z"/><path class="cls-8" d="M187,498.87q-8.47,0-8.47-8.48V476.27q0-8.47,8.47-8.48h6.5q8.48,0,8.48,8.48v1.5l-17.72,13.69a2.51,2.51,0,0,0,2.74,2.32h6.5c1.88,0,2.83-1.13,2.83-3.39V488.9l5.36-2.55H202v4q0,8.48-8.48,8.48Zm-2.82-13.31,12.12-9.37c-.11-2.21-1.05-3.31-2.8-3.31H187q-2.82,0-2.82,3.39Z"/><path class="cls-8" d="M210.46,500V476.27q0-8.47,8.48-8.48H226v.28l-2.26,4.81h-4.8c-1.88,0-2.83,1.13-2.83,3.39v21.19L210.75,500Z"/><path class="cls-8" d="M238.43,498.87q-8.48,0-8.47-8.48v-1l5.37-2.55h.28v3.56q0,3.39,2.82,3.39h6.5q2.83,0,2.83-3.39v-2.23q0-3.39-2.83-3.39h-5.31q-8.48,0-8.48-8.5t8.48-8.48h3.31q8.48,0,8.47,6.84L246,477.17h-.28v-.9q0-3.39-2.82-3.39h-3.31q-2.82,0-2.82,3.39t2.82,3.42h5.31q8.48,0,8.48,8.47v2.23q0,8.48-8.48,8.48Z"/><path class="cls-9" d="M285.05,500V457.62l5.37-2.54h.28v42.38L285.33,500Z"/><path class="cls-9" d="M300.59,500V476.27q0-8.47,8.48-8.48h6.49q8.47,0,8.48,8.48v21.19L318.67,500h-.28V476.27q0-3.39-2.83-3.39h-6.49q-2.83,0-2.83,3.39v21.19L300.87,500Z"/><path class="cls-9" d="M336.25,500V472.93H329v-.28l2.29-4.86h5V457.62l5.36-2.54h.29v12.71h7.26v.28l-2.29,4.86h-5v24.53L336.53,500Z"/><path class="cls-9" d="M362.58,498.87q-8.47,0-8.48-8.48V476.27q0-8.47,8.48-8.48h6.5q8.48,0,8.47,8.48v1.5l-17.71,13.69a2.5,2.5,0,0,0,2.74,2.32h6.5q2.82,0,2.82-3.39V488.9l5.37-2.55h.28v4q0,8.48-8.47,8.48Zm-2.83-13.31,12.12-9.37q-.17-3.31-2.79-3.31h-6.5q-2.83,0-2.83,3.39Z"/><path class="cls-9" d="M386,500V476.27q0-8.47,8.47-8.48h7.07v.28l-2.26,4.81H394.5q-2.82,0-2.82,3.39v21.19L386.31,500Z"/><path class="cls-9" d="M408.21,461.55a3.51,3.51,0,0,1,0-4.89,3.33,3.33,0,0,1,4.8,0,3.51,3.51,0,0,1,0,4.89,3.36,3.36,0,0,1-4.8,0ZM407.78,500V469.2l5.37-2.54h.28v30.8L408.07,500Z"/><path class="cls-9" d="M423.32,500V476.27q0-8.47,8.48-8.48h6.5q3.9,0,5.65,2.09,1.86-2.08,5.65-2.09h6.5q8.47,0,8.47,8.48v21.19L459.2,500h-.28V476.27q0-3.39-2.82-3.39h-6.5q-2.84,0-2.83,3.39v21.19L441.4,500h-.28V476.27q0-3.39-2.82-3.39h-6.5q-2.83,0-2.83,3.39v21.19L423.6,500Z"/></svg>